<?xml version="1.0" ?>
<!-- Uploaded to: SVG Repo, www.svgrepo.com, Generator: SVG Repo Mixer Tools -->
<svg fill="#000000" width="800px" height="800px" viewBox="0 0 64 64" xmlns="http://www.w3.org/2000/svg">
<g id="Dream">
<path d="M15.81,30.41a9.81,9.81,0,0,0,1.29,4.88,4.88,4.88,0,0,0-.45,2.07,5,5,0,0,0,9,2.93H43.44a9.87,9.87,0,0,0,6.82-17,2.76,2.76,0,0,0-2.37-1.82l1.77-1.83a2.76,2.76,0,0,0-.08-3.91,2.71,2.71,0,0,0-1.91-.77H41.9a9.79,9.79,0,0,0-7.33-3.28l-.56,0h0A2.76,2.76,0,0,0,32,7H25.75a2.76,2.76,0,0,0-.22,5.51l-1.77,1.83A2.75,2.75,0,0,0,25,18.92a9.32,9.32,0,0,0-.3,1.66A9.89,9.89,0,0,0,15.81,30.41ZM48.2,17.15a.77.77,0,0,1,0,1.08l-3.39,3.52a1,1,0,0,0,.71,1.69h2.13a.74.74,0,0,1,.76.76.76.76,0,0,1-.76.76H41.39a.74.74,0,0,1-.53-.21.73.73,0,0,1-.23-.54.78.78,0,0,1,.21-.54l3.4-3.51a1,1,0,0,0,.2-1.09,1,1,0,0,0-.92-.61H41.39a.76.76,0,0,1,0-1.52h6.28A.78.78,0,0,1,48.2,17.15Zm-8.52-1.6a2.74,2.74,0,0,0-1,2.15,2.78,2.78,0,0,0,2.54,2.76l-1.76,1.82a2.75,2.75,0,0,0,2,4.68h6.28a2.75,2.75,0,0,0,2.2-1.11,7.88,7.88,0,0,1-6.43,12.44H25.69l-.51,0a1,1,0,0,0-.94.52,3,3,0,0,1-5.59-1.43,3,3,0,0,1,.45-1.58,1,1,0,0,0,0-1.07,7.88,7.88,0,0,1,6.6-12.18,1,1,0,0,0,.71-.29,1,1,0,0,0,.29-.71A7.91,7.91,0,0,1,27.1,19H32a2.76,2.76,0,0,0,1.2-5.24,7.42,7.42,0,0,1,1.34-.12A7.85,7.85,0,0,1,39.68,15.55Zm-14.48.18,3.39-3.51a1,1,0,0,0-.72-1.7H25.75a.76.76,0,1,1,0-1.52H32a.78.78,0,0,1,.52.21.76.76,0,0,1,0,1.08l-3.4,3.52a1,1,0,0,0-.2,1.08,1,1,0,0,0,.92.61H32A.76.76,0,1,1,32,17H25.75a.74.74,0,0,1-.53-.21.77.77,0,0,1-.24-.54A.79.79,0,0,1,25.2,15.73Z"/>
<path d="M10.68,45.67a3.86,3.86,0,1,0,3.86-3.86A3.86,3.86,0,0,0,10.68,45.67Zm5.71,0a1.86,1.86,0,1,1-1.85-1.86A1.85,1.85,0,0,1,16.39,45.67Z"/>
<path d="M20,53.86A3.14,3.14,0,1,0,16.83,57,3.15,3.15,0,0,0,20,53.86Zm-4.28,0A1.14,1.14,0,1,1,16.83,55,1.14,1.14,0,0,1,15.69,53.86Z"/>
<path d="M28.38,24a2.76,2.76,0,0,0-.23,5.51l-1.76,1.83a2.76,2.76,0,0,0,.07,3.91,2.71,2.71,0,0,0,1.92.77h6.28a2.76,2.76,0,0,0,.22-5.51l1.77-1.83a2.76,2.76,0,0,0-.08-3.91A2.74,2.74,0,0,0,34.66,24Zm7,2.75a.78.78,0,0,1-.21.54l-3.4,3.51a1,1,0,0,0,.72,1.7h2.13a.76.76,0,1,1,0,1.52H28.38a.74.74,0,0,1-.53-.21.76.76,0,0,1,0-1.08l3.39-3.51a1,1,0,0,0-.72-1.7H28.38a.76.76,0,1,1,0-1.52h6.28a.73.73,0,0,1,.52.21A.77.77,0,0,1,35.42,26.73Z"/>
</g>
</svg>